<svg width="180" height="180" viewBox="0 0 180 180" fill="none" xmlns="http://www.w3.org/2000/svg">
<path d="M22.1634 149.024C19.0337 148.989 16.2524 148.188 14.0916 146.173C14.0916 146.173 14.0846 146.173 14.0776 146.159C13.8267 145.915 13.5897 145.664 13.3667 145.413C11.6589 143.462 10.7318 140.959 10.7318 138.255L10.7109 26.8528C10.7109 20.4051 16.1479 14.6196 22.5816 14.2223L133.865 7.33547C134.109 7.32153 134.346 7.31456 134.59 7.31456C137.371 7.31456 139.964 8.3183 141.944 10.1864C142.216 10.4443 142.474 10.7092 142.711 10.988C143.352 11.7199 143.882 12.5285 144.3 13.3998C143.889 12.5354 143.352 11.7269 142.711 10.995C144.377 12.9328 145.29 15.4003 145.29 18.077V20.9279C145.29 20.9279 145.359 23.263 143.045 23.4163L143.059 23.4303L40.7048 29.8431C33.1976 30.3101 27.0985 36.8136 27.0985 44.3347C27.0985 44.3347 27.0567 147.156 27.0497 147.323C26.973 149.024 25.5719 149.024 24.4149 149.024H22.1634Z" fill="black"/>
<path d="M169.345 157.647C169.345 157.814 169.331 157.981 169.317 158.148C169.073 161.724 166.222 164.875 162.716 165.523C162.646 165.523 162.576 165.544 162.507 165.544L43.7926 172.731H43.4232C41.102 172.612 38.9551 171.72 37.2822 170.145C35.4071 168.381 34.3546 165.969 34.2779 163.328C34.2779 163.223 34.264 163.118 34.264 163.007V45.0527C34.264 44.8854 34.264 44.7251 34.2779 44.5578C34.5358 40.7728 37.7004 37.4688 41.4784 37.0785C41.576 37.0785 41.6736 37.0506 41.7712 37.0436L160.548 29.5991C160.736 29.5852 160.924 29.5782 161.113 29.5782C163.252 29.5782 165.246 30.352 166.773 31.7809C167.839 32.7777 168.592 34.0254 168.996 35.4125C169.17 36.005 169.275 36.6254 169.317 37.2597L169.345 157.647Z" fill="black"/>
<path d="M176.643 37.8583C176.643 33.4738 174.921 29.4379 171.784 26.4964C168.648 23.5549 164.514 22.0771 160.144 22.356L154.044 22.7254C152.518 22.7742 152.588 21.5962 152.588 21.5962V18.0761C152.588 12.9737 150.58 8.28259 146.935 4.86009C143.289 1.43759 138.472 -0.277142 133.391 0.0365289L22.0935 6.92335C11.7633 7.56463 3.35693 16.5077 3.35693 26.8589L3.37784 138.261C3.37784 143.356 5.38534 148.054 9.03089 151.484C12.3976 154.648 16.7542 156.363 21.4104 156.363C21.7938 156.363 25.4812 156.293 25.4812 156.293C26.8265 156.293 27.0495 156.914 27.0495 158.071V163.766C27.0495 168.338 28.8688 172.556 32.138 175.629C35.1562 178.466 39.0666 180 43.2419 180C43.4092 180 43.5696 179.986 43.7368 179.986C43.8205 179.986 43.8972 180 43.9808 180C44.3433 180 44.7057 179.986 45.0752 179.965L162.318 172.869C162.841 172.834 163.35 172.772 163.859 172.688C170.969 171.817 176.629 165.55 176.629 158.322L176.615 158.252C176.615 158.05 176.643 157.848 176.643 157.646V37.8583ZM22.1634 149.024C19.0337 148.989 16.2524 148.188 14.0916 146.173C14.0916 146.173 14.0846 146.173 14.0776 146.159C13.8267 145.915 13.5897 145.664 13.3667 145.413C11.6589 143.462 10.7318 140.959 10.7318 138.255L10.7109 26.8528C10.7109 20.4051 16.1479 14.6196 22.5816 14.2223L133.865 7.33547C134.109 7.32153 134.346 7.31456 134.59 7.31456C137.371 7.31456 139.964 8.3183 141.944 10.1864C142.216 10.4443 142.474 10.7092 142.711 10.988C143.352 11.7199 143.882 12.5285 144.3 13.3998C143.889 12.5354 143.352 11.7269 142.711 10.995C144.377 12.9328 145.29 15.4003 145.29 18.077V20.9279C145.29 20.9279 145.359 23.263 143.045 23.4163L143.059 23.4303L40.7048 29.8431C33.1976 30.3101 27.0985 36.8136 27.0985 44.3347C27.0985 44.3347 27.0567 147.156 27.0497 147.323C26.973 149.024 25.5719 149.024 24.4149 149.024H22.1634ZM169.386 157.646C169.386 157.813 169.373 157.98 169.359 158.148C169.115 161.723 166.264 164.874 162.758 165.522C162.688 165.522 162.618 165.543 162.548 165.543L43.8344 172.73H43.465C41.1438 172.611 38.9969 171.719 37.324 170.144C35.449 168.38 34.3964 165.968 34.3197 163.327C34.3197 163.222 34.3058 163.118 34.3058 163.006L34.3059 45.0527C34.3059 44.8854 34.3059 44.7251 34.3198 44.5578C34.5777 40.7728 37.7423 37.4688 41.5203 37.0785C41.6179 37.0785 41.7155 37.0506 41.8131 37.0436L160.59 29.5991C160.778 29.5852 160.966 29.5782 161.154 29.5782C163.294 29.5782 165.288 30.352 166.814 31.7809C167.881 32.7777 168.634 34.0254 169.038 35.4125C169.212 36.005 169.317 36.6254 169.359 37.2597V114.242L169.387 157.64L169.386 157.646Z" fill="white"/>
<path fill-rule="evenodd" clip-rule="evenodd" d="M152.281 153.91L52.8891 159.696C48.8253 159.982 45.2286 158.602 45.3401 153.276V70.3833C45.3401 67.5394 47.6822 65.7201 50.2682 65.5876L153.598 59.3909C156.177 59.2584 158.29 61.1265 158.29 63.7126V146.752C158.29 149.791 157.53 153.701 152.302 153.903H152.288L152.281 153.91Z" fill="white"/>
<path d="M101.07 143.969L100.293 144.017C92.8137 144.481 87.3732 140.417 87.3663 133.02C87.3663 129.216 88.6208 124.641 91.3343 119.364C93.366 115.437 96.1817 111.258 98.8952 107.187L109.749 90.8041C105.863 91.6496 99.2634 92.8563 92.7592 93.2654C85.3823 93.7222 80.4258 90.0337 80.4189 83.4273C80.4189 81.7228 80.8008 79.7047 81.578 77.5503C86.7255 78.0276 98.1794 77.6185 108.474 76.9776C115.66 76.5276 123.133 75.9618 126.726 75.5391C119.362 89.9042 106.579 121.914 101.07 143.969Z" fill="black"/>
</svg>
